<svg xmlns="http://www.w3.org/2000/svg" viewBox="0 0 800 500">
  <!-- Background -->
  <defs>
    <linearGradient id="bgGradient" x1="0%" y1="0%" x2="100%" y2="100%">
      <stop offset="0%" stop-color="#111827" />
      <stop offset="100%" stop-color="#1f2937" />
    </linearGradient>
    <filter id="glow" x="-20%" y="-20%" width="140%" height="140%">
      <feGaussianBlur stdDeviation="4" result="blur" />
      <feComposite in="SourceGraphic" in2="blur" operator="over" />
    </filter>
  </defs>
  <rect width="800" height="500" fill="url(#bgGradient)" rx="10" ry="10" />
  
  <!-- Title -->
  <text x="400" y="60" font-family="Arial, sans-serif" font-size="32" font-weight="bold" fill="#ffffff" text-anchor="middle" filter="url(#glow)">Live Submission Checks</text>
  
  <!-- Subtitle -->
  <text x="400" y="95" font-family="Arial, sans-serif" font-size="16" fill="#94a3b8" text-anchor="middle">Real-time feedback as you code</text>
  
  <!-- Code Editor Section -->
  <g transform="translate(150, 250)">
    <!-- Editor Window -->
    <rect x="-130" y="-125" width="260" height="250" rx="8" fill="#1e293b" stroke="#374151" stroke-width="2" />
    
    <!-- Window Controls -->
    <circle cx="-110" cy="-105" r="6" fill="#ef4444" />
    <circle cx="-90" cy="-105" r="6" fill="#f59e0b" />
    <circle cx="-70" cy="-105" r="6" fill="#10b981" />
    
    <!-- Window Title -->
    <rect x="-50" y="-110" width="100" height="10" rx="2" fill="#4b5563" />
    
    <!-- Code Lines -->
    <text x="-120" y="-70" font-family="monospace" font-size="14" fill="#818cf8">function</text>
    <text x="-60" y="-70" font-family="monospace" font-size="14" fill="#e2e8f0">checkPalindrome(str) {</text>
    
    <text x="-110" y="-45" font-family="monospace" font-size="14" fill="#e2e8f0">  const reversed = str</text>
    <text x="-110" y="-25" font-family="monospace" font-size="14" fill="#e2e8f0">    .split('')</text>
    <text x="-110" y="-5" font-family="monospace" font-size="14" fill="#e2e8f0">    .reverse()</text>
    <text x="-110" y="15" font-family="monospace" font-size="14" fill="#e2e8f0">    .join('');</text>
    
    <text x="-110" y="40" font-family="monospace" font-size="14" fill="#818cf8">  return</text>
    <text x="-65" y="40" font-family="monospace" font-size="14" fill="#e2e8f0">str === reversed;</text>
    
    <text x="-120" y="65" font-family="monospace" font-size="14" fill="#e2e8f0">}</text>
    
    <!-- Cursor -->
    <rect x="-35" y="65" width="2" height="14" fill="#ffffff">
      <animate attributeName="opacity" values="1;0;1" dur="1s" repeatCount="indefinite" />
    </rect>
  </g>
  
  <!-- Compiler/Testing Section -->
  <g transform="translate(550, 250)">
    <!-- Results Window -->
    <rect x="-130" y="-125" width="260" height="250" rx="8" fill="#1e293b" stroke="#374151" stroke-width="2" />
    
    <!-- Window Title -->
    <rect x="-110" y="-105" width="220" height="25" rx="4" fill="#2a3f5f" />
    <text x="-0" y="-88" font-family="Arial, sans-serif" font-size="14" font-weight="bold" fill="#ffffff" text-anchor="middle">Test Results</text>
    
    <!-- Test Cases -->
    <g transform="translate(0, -55)">
      <rect x="-110" y="0" width="220" height="30" rx="4" fill="#064e3b" opacity="0.3" />
      <text x="-100" y="20" font-family="monospace" font-size="14" fill="#ffffff">Test 1: "racecar"</text>
      <circle cx="90" cy="15" r="10" fill="#10b981" />
      <text x="90" y="20" font-family="Arial, sans-serif" font-size="16" font-weight="bold" fill="#ffffff" text-anchor="middle">✓</text>
    </g>
    
    <g transform="translate(0, -15)">
      <rect x="-110" y="0" width="220" height="30" rx="4" fill="#064e3b" opacity="0.3" />
      <text x="-100" y="20" font-family="monospace" font-size="14" fill="#ffffff">Test 2: "level"</text>
      <circle cx="90" cy="15" r="10" fill="#10b981" />
      <text x="90" y="20" font-family="Arial, sans-serif" font-size="16" font-weight="bold" fill="#ffffff" text-anchor="middle">✓</text>
    </g>
    
    <g transform="translate(0, 25)">
      <rect x="-110" y="0" width="220" height="30" rx="4" fill="#7f1d1d" opacity="0.3" />
      <text x="-100" y="20" font-family="monospace" font-size="14" fill="#ffffff">Test 3: "Hello"</text>
      <circle cx="90" cy="15" r="10" fill="#ef4444" />
      <text x="90" y="20" font-family="Arial, sans-serif" font-size="16" font-weight="bold" fill="#ffffff" text-anchor="middle">✗</text>
    </g>
    
    <!-- Live Status -->
    <rect x="-110" y="65" width="220" height="40" rx="4" fill="#374151" />
    <text x="0" y="90" font-family="Arial, sans-serif" font-size="14" fill="#94a3b8" text-anchor="middle">2/3 Tests Passing</text>
    
    <!-- Progress Bar -->
    <rect x="-100" y="100" width="200" height="10" rx="5" fill="#1f2937" />
    <rect x="-100" y="100" width="133" height="10" rx="5" fill="#3b82f6">
      <animate attributeName="width" values="0;133" dur="1s" fill="freeze" />
    </rect>
  </g>
  
  <!-- Connecting Elements -->
  <!-- Data Flow Arrows -->
  <g>
    <path d="M280,200 C330,200 370,175 420,175" stroke="#3b82f6" stroke-width="3" fill="none" stroke-dasharray="1,0">
      <animate attributeName="stroke-dasharray" values="1,30;30,1" dur="2s" repeatCount="indefinite" />
    </path>
    <polygon points="420,175 410,170 410,180" fill="#3b82f6" />
    
    <path d="M280,250 C330,250 370,275 420,275" stroke="#10b981" stroke-width="3" fill="none" stroke-dasharray="1,0">
      <animate attributeName="stroke-dasharray" values="1,30;30,1" dur="2s" repeatCount="indefinite" />
    </path>
    <polygon points="420,275 410,270 410,280" fill="#10b981" />
  </g>
  
  <!-- Abstract Code Elements -->
  <!-- Left Side Elements -->
  <g opacity="0.15">
    <circle cx="70" cy="150" r="3" fill="#3b82f6" />
    <circle cx="80" cy="150" r="3" fill="#3b82f6" />
    <circle cx="90" cy="150" r="3" fill="#3b82f6" />
    <circle cx="70" cy="160" r="3" fill="#3b82f6" />
    <circle cx="80" cy="160" r="3" fill="#10b981" />
    <circle cx="90" cy="160" r="3" fill="#3b82f6" />
    <circle cx="70" cy="170" r="3" fill="#3b82f6" />
    <circle cx="80" cy="170" r="3" fill="#3b82f6" />
    <circle cx="90" cy="170" r="3" fill="#3b82f6" />
  </g>
  
  <!-- Right Side Elements -->
  <g opacity="0.15">
    <circle cx="730" cy="150" r="3" fill="#10b981" />
    <circle cx="720" cy="150" r="3" fill="#10b981" />
    <circle cx="710" cy="150" r="3" fill="#10b981" />
    <circle cx="730" cy="160" r="3" fill="#10b981" />
    <circle cx="720" cy="160" r="3" fill="#ef4444" />
    <circle cx="710" cy="160" r="3" fill="#10b981" />
    <circle cx="730" cy="170" r="3" fill="#10b981" />
    <circle cx="720" cy="170" r="3" fill="#10b981" />
    <circle cx="710" cy="170" r="3" fill="#10b981" />
  </g>
  
  <!-- Code Brackets -->
  <text x="50" y="450" font-family="monospace" font-size="20" fill="#64748b" opacity="0.5">&lt;/&gt;</text>
  <text x="740" y="450" font-family="monospace" font-size="20" fill="#64748b" opacity="0.5">&lt;/&gt;</text>
  
  <!-- Animated Check/Compile Icon -->
  <g transform="translate(400, 250)">
    <circle cx="0" cy="0" r="30" fill="#3b82f6" opacity="0.2">
      <animate attributeName="r" values="30;35;30" dur="2s" repeatCount="indefinite" />
      <animate attributeName="opacity" values="0.2;0.3;0.2" dur="2s" repeatCount="indefinite" />
    </circle>
    <circle cx="0" cy="0" r="20" fill="#3b82f6" />
    <path d="M-10,0 L-3,7 L10,-7" stroke="#ffffff" stroke-width="3" fill="none" />
  </g>
</svg>
